static pose
version=1
nRows=1
nColumns=442
inDegrees=yes
endheader
time	LFHD_tx	LFHD_ty	LFHD_tz	RFHD_tx	RFHD_ty	RFHD_tz	LBHD_tx	LBHD_ty	LBHD_tz	RBHD_tx	RBHD_ty	RBHD_tz	C7_tx	C7_ty	C7_tz	CLAV_tx	CLAV_ty	CLAV_tz	LSHO_tx	LSHO_ty	LSHO_tz	LUA1_tx	LUA1_ty	LUA1_tz	LELB_tx	LELB_ty	LELB_tz	LLA1_tx	LLA1_ty	LLA1_tz	LWRA_tx	LWRA_ty	LWRA_tz	LWRB_tx	LWRB_ty	LWRB_tz	LFIN_tx	LFIN_ty	LFIN_tz	RSHO_tx	RSHO_ty	RSHO_tz	RUA1_tx	RUA1_ty	RUA1_tz	RELB_tx	RELB_ty	RELB_tz	RLA1_tx	RLA1_ty	RLA1_tz	RWRA_tx	RWRA_ty	RWRA_tz	RWRB_tx	RWRB_ty	RWRB_tz	RFIN_tx	RFIN_ty	RFIN_tz	LASI_tx	LASI_ty	LASI_tz	RASI_tx	RASI_ty	RASI_tz	RPSI_tx	RPSI_ty	RPSI_tz	LPSI_tx	LPSI_ty	LPSI_tz	LTHI_tx	LTHI_ty	LTHI_tz	LTHI2_tx	LTHI2_ty	LTHI2_tz	LTHI3_tx	LTHI3_ty	LTHI3_tz	LKNE_tx	LKNE_ty	LKNE_tz	LKNEmed_tx	LKNEmed_ty	LKNEmed_tz	LTIB_tx	LTIB_ty	LTIB_tz	LTIB2_tx	LTIB2_ty	LTIB2_tz	LTIB3_tx	LTIB3_ty	LTIB3_tz	LANK_tx	LANK_ty	LANK_tz	LANKmed_tx	LANKmed_ty	LANKmed_tz	LHEE_tx	LHEE_ty	LHEE_tz	LTOE_tx	LTOE_ty	LTOE_tz	LLatFoot_tx	LLatFoot_ty	LLatFoot_tz	RTHI_tx	RTHI_ty	RTHI_tz	RTHI2_tx	RTHI2_ty	RTHI2_tz	RTHI3_tx	RTHI3_ty	RTHI3_tz	RKNE_tx	RKNE_ty	RKNE_tz	RKNEmed_tx	RKNEmed_ty	RKNEmed_tz	RTIB_tx	RTIB_ty	RTIB_tz	RTIB2_tx	RTIB2_ty	RTIB2_tz	RTIB3_tx	RTIB3_ty	RTIB3_tz	RANK_tx	RANK_ty	RANK_tz	RANKmed_tx	RANKmed_ty	RANKmed_tz	RHEE_tx	RHEE_ty	RHEE_tz	RTOE_tx	RTOE_ty	RTOE_tz	RLatFoot_tx	RLatFoot_ty	RLatFoot_tz	Block1_tx	Block1_ty	Block1_tz	Block2_tx	Block2_ty	Block2_tz	Block3_tx	Block3_ty	Block3_tz	Block4_tx	Block4_ty	Block4_tz	*54_tx	*54_ty	*54_tz	*55_tx	*55_ty	*55_tz	*56_tx	*56_ty	*56_tz	*57_tx	*57_ty	*57_tz	*58_tx	*58_ty	*58_tz	*59_tx	*59_ty	*59_tz	*60_tx	*60_ty	*60_tz	pelvis_tilt	pelvis_list	pelvis_rotation	pelvis_tx	pelvis_ty	pelvis_tz	hip_flexion_r	hip_adduction_r	hip_rotation_r	knee_angle_r	ankle_angle_r	subtalar_angle_r	mtp_angle_r	hip_flexion_l	hip_adduction_l	hip_rotation_l	knee_angle_l	ankle_angle_l	subtalar_angle_l	mtp_angle_l	lumbar_extension	lumbar_bending	lumbar_rotation	arm_flex_r	arm_add_r	arm_rot_r	elbow_flex_r	pro_sup_r	wrist_flex_r	wrist_dev_r	arm_flex_l	arm_add_l	arm_rot_l	elbow_flex_l	pro_sup_l	wrist_flex_l	wrist_dev_l	pelvis_tilt_u	pelvis_list_u	pelvis_rotation_u	pelvis_tx_u	pelvis_ty_u	pelvis_tz_u	hip_flexion_r_u	hip_adduction_r_u	hip_rotation_r_u	knee_angle_r_u	ankle_angle_r_u	subtalar_angle_r_u	mtp_angle_r_u	hip_flexion_l_u	hip_adduction_l_u	hip_rotation_l_u	knee_angle_l_u	ankle_angle_l_u	subtalar_angle_l_u	mtp_angle_l_u	lumbar_extension_u	lumbar_bending_u	lumbar_rotation_u	arm_flex_r_u	arm_add_r_u	arm_rot_r_u	elbow_flex_r_u	pro_sup_r_u	wrist_flex_r_u	wrist_dev_r_u	arm_flex_l_u	arm_add_l_u	arm_rot_l_u	elbow_flex_l_u	pro_sup_l_u	wrist_flex_l_u	wrist_dev_l_u	glut_med1_r.activation	glut_med1_r.fiber_length	glut_med2_r.activation	glut_med2_r.fiber_length	glut_med3_r.activation	glut_med3_r.fiber_length	glut_min1_r.activation	glut_min1_r.fiber_length	glut_min2_r.activation	glut_min2_r.fiber_length	glut_min3_r.activation	glut_min3_r.fiber_length	semimem_r.activation	semimem_r.fiber_length	semiten_r.activation	semiten_r.fiber_length	bifemlh_r.activation	bifemlh_r.fiber_length	bifemsh_r.activation	bifemsh_r.fiber_length	sar_r.activation	sar_r.fiber_length	add_long_r.activation	add_long_r.fiber_length	add_brev_r.activation	add_brev_r.fiber_length	add_mag1_r.activation	add_mag1_r.fiber_length	add_mag2_r.activation	add_mag2_r.fiber_length	add_mag3_r.activation	add_mag3_r.fiber_length	tfl_r.activation	tfl_r.fiber_length	pect_r.activation	pect_r.fiber_length	grac_r.activation	grac_r.fiber_length	glut_max1_r.activation	glut_max1_r.fiber_length	glut_max2_r.activation	glut_max2_r.fiber_length	glut_max3_r.activation	glut_max3_r.fiber_length	iliacus_r.activation	iliacus_r.fiber_length	psoas_r.activation	psoas_r.fiber_length	quad_fem_r.activation	quad_fem_r.fiber_length	gem_r.activation	gem_r.fiber_length	peri_r.activation	peri_r.fiber_length	rect_fem_r.activation	rect_fem_r.fiber_length	vas_med_r.activation	vas_med_r.fiber_length	vas_int_r.activation	vas_int_r.fiber_length	vas_lat_r.activation	vas_lat_r.fiber_length	med_gas_r.activation	med_gas_r.fiber_length	lat_gas_r.activation	lat_gas_r.fiber_length	soleus_r.activation	soleus_r.fiber_length	tib_post_r.activation	tib_post_r.fiber_length	flex_dig_r.activation	flex_dig_r.fiber_length	flex_hal_r.activation	flex_hal_r.fiber_length	tib_ant_r.activation	tib_ant_r.fiber_length	per_brev_r.activation	per_brev_r.fiber_length	per_long_r.activation	per_long_r.fiber_length	per_tert_r.activation	per_tert_r.fiber_length	ext_dig_r.activation	ext_dig_r.fiber_length	ext_hal_r.activation	ext_hal_r.fiber_length	glut_med1_l.activation	glut_med1_l.fiber_length	glut_med2_l.activation	glut_med2_l.fiber_length	glut_med3_l.activation	glut_med3_l.fiber_length	glut_min1_l.activation	glut_min1_l.fiber_length	glut_min2_l.activation	glut_min2_l.fiber_length	glut_min3_l.activation	glut_min3_l.fiber_length	semimem_l.activation	semimem_l.fiber_length	semiten_l.activation	semiten_l.fiber_length	bifemlh_l.activation	bifemlh_l.fiber_length	bifemsh_l.activation	bifemsh_l.fiber_length	sar_l.activation	sar_l.fiber_length	add_long_l.activation	add_long_l.fiber_length	add_brev_l.activation	add_brev_l.fiber_length	add_mag1_l.activation	add_mag1_l.fiber_length	add_mag2_l.activation	add_mag2_l.fiber_length	add_mag3_l.activation	add_mag3_l.fiber_length	tfl_l.activation	tfl_l.fiber_length	pect_l.activation	pect_l.fiber_length	grac_l.activation	grac_l.fiber_length	glut_max1_l.activation	glut_max1_l.fiber_length	glut_max2_l.activation	glut_max2_l.fiber_length	glut_max3_l.activation	glut_max3_l.fiber_length	iliacus_l.activation	iliacus_l.fiber_length	psoas_l.activation	psoas_l.fiber_length	quad_fem_l.activation	quad_fem_l.fiber_length	gem_l.activation	gem_l.fiber_length	peri_l.activation	peri_l.fiber_length	rect_fem_l.activation	rect_fem_l.fiber_length	vas_med_l.activation	vas_med_l.fiber_length	vas_int_l.activation	vas_int_l.fiber_length	vas_lat_l.activation	vas_lat_l.fiber_length	med_gas_l.activation	med_gas_l.fiber_length	lat_gas_l.activation	lat_gas_l.fiber_length	soleus_l.activation	soleus_l.fiber_length	tib_post_l.activation	tib_post_l.fiber_length	flex_dig_l.activation	flex_dig_l.fiber_length	flex_hal_l.activation	flex_hal_l.fiber_length	tib_ant_l.activation	tib_ant_l.fiber_length	per_brev_l.activation	per_brev_l.fiber_length	per_long_l.activation	per_long_l.fiber_length	per_tert_l.activation	per_tert_l.fiber_length	ext_dig_l.activation	ext_dig_l.fiber_length	ext_hal_l.activation	ext_hal_l.fiber_length	ercspn_r.activation	ercspn_r.fiber_length	ercspn_l.activation	ercspn_l.fiber_length	intobl_r.activation	intobl_r.fiber_length	intobl_l.activation	intobl_l.fiber_length	extobl_r.activation	extobl_r.fiber_length	extobl_l.activation	extobl_l.fiber_length
      0.00000000	      0.04988045	      1.64156364	      0.01515573	     -0.02244255	      1.59488182	      0.11772636	     -0.05644009	      1.57788182	     -0.06357336	     -0.13203091	      1.52740000	      0.04407755	     -0.13108727	      1.44510000	      0.01706318	      0.01198118	      1.34850000	      0.02043464	     -0.11260182	      1.39590000	     -0.16489818	     -0.09178036	      1.22520909	     -0.22059636	     -0.08810345	      1.08970000	     -0.23753273	     -0.01552527	      0.98433364	     -0.21167091	      0.00677174	      0.85952455	     -0.18464273	     -0.02722855	      0.85335091	     -0.24542545	      0.02554382	      0.81701455	     -0.22598091	     -0.10377455	      1.36466364	      0.20245091	     -0.09795064	      1.19439091	      0.23126364	     -0.11769182	      1.05678182	      0.24734818	     -0.05858618	      0.96065727	      0.25741273	     -0.06388482	      0.82296545	      0.26613091	     -0.02287809	      0.82743182	      0.20805000	     -0.01165427	      0.80058000	      0.25809818	      0.03804845	      0.96845000	     -0.09399964	      0.03163091	      0.97380000	      0.12204000	     -0.18520636	      0.97703818	      0.03441864	     -0.18237727	      0.97825455	     -0.03677964	     -0.00766065	      0.67729455	     -0.17349000	     -0.06909764	      0.68288455	     -0.18117636	     -0.03743273	      0.63892455	     -0.17395727	     -0.05437064	      0.47754182	     -0.13929091	     -0.09622664	      0.46228818	     -0.03026245	     -0.06867373	      0.41881909	     -0.16416455	     -0.13070545	      0.43135364	     -0.16732818	     -0.10756636	      0.37988818	     -0.17585364	     -0.09550891	      0.09152445	     -0.15350000	     -0.08122155	      0.09870136	     -0.07904164	     -0.16545909	      0.04062655	     -0.11241000	      0.04334409	      0.05122073	     -0.10193000	     -0.03600273	      0.02143500	     -0.17759909	      0.00361775	      0.68495727	      0.17986000	     -0.06647318	      0.67587909	      0.19437545	     -0.02642518	      0.63475545	      0.18060818	     -0.06451436	      0.47954909	      0.15626636	     -0.09034964	      0.46456455	      0.03647264	     -0.07035945	      0.40272364	      0.16487818	     -0.12329364	      0.40458636	      0.17544909	     -0.09801673	      0.35669273	      0.17730273	     -0.10469545	      0.08481445	      0.15115273	     -0.08727709	      0.08488991	      0.07326845	     -0.16623273	      0.05269318	      0.11218455	      0.04514600	      0.05259582	      0.12710636	     -0.05151618	      0.02548636	      0.18179545	      0.51655091	      0.03600755	     -0.57627364	     -0.31266545	      0.02624227	     -0.57087091	     -0.36464818	      0.02065555	      0.64476727	      0.39797091	      0.03450564	      0.63737364	     -0.14593455	      0.05819391	     -0.11591818	      0.00371198	      0.82180364	      0.18052455	      0.03205600	      0.33070818	      0.08766545	     -0.16679909	      0.51289364	      0.26677636	      0.01303545	      0.05643818	      0.01056545	      0.00000000	      0.00000000	      0.00000000	      0.00000000	      0.00000000	      0.00000000	      5.80650031	     -1.78915448	     -2.84234035	     -0.00368662	      0.94060548	      0.01044212	     -6.41994860	     -0.62166280	     -0.00031134	     -3.65099340	      0.00152772	      0.00000000	      0.00000000	     -7.34471752	     -4.35082155	      0.00031926	     -3.03665958	      0.00153926	      0.00000000	      0.00000000	    -10.40224166	      3.66929448	      2.15646728	     -6.02718521	     -7.59067322	    -12.69490175	     31.22388172	    112.15943287	      0.00000000	      0.00000000	     -4.51154104	     -9.44162646	      1.75266524	     34.56057548	    115.08738147	      0.00000000	      0.00000000	      0.00000000	      0.00000000	      0.00000000	      0.00000000	      0.00000000	      0.00000000	      0.00000000	      0.00000000	      0.00000000	      0.00000000	      0.00000000	      0.00000000	      0.00000000	      0.00000000	      0.00000000	      0.00000000	      0.00000000	      0.00000000	      0.00000000	      0.00000000	      0.00000000	      0.00000000	      0.00000000	      0.00000000	      0.00000000	      0.00000000	      0.00000000	      0.00000000	      0.00000000	      0.00000000	      0.00000000	      0.00000000	      0.00000000	      0.00000000	      0.00000000	      0.00000000	      0.00000000	      0.05000000	      0.10000000	      0.05000000	      0.10000000	      0.05000000	      0.10000000	      0.05000000	      0.10000000	      0.05000000	      0.10000000	      0.05000000	      0.10000000	      0.05000000	      0.10000000	      0.05000000	      0.10000000	      0.05000000	      0.10000000	      0.05000000	      0.10000000	      0.05000000	      0.10000000	      0.05000000	      0.10000000	      0.05000000	      0.10000000	      0.05000000	      0.10000000	      0.05000000	      0.10000000	      0.05000000	      0.10000000	      0.05000000	      0.10000000	      0.05000000	      0.10000000	      0.05000000	      0.10000000	      0.05000000	      0.10000000	      0.05000000	      0.10000000	      0.05000000	      0.10000000	      0.05000000	      0.10000000	      0.05000000	      0.10000000	      0.05000000	      0.10000000	      0.05000000	      0.10000000	      0.05000000	      0.10000000	      0.05000000	      0.10000000	      0.05000000	      0.10000000	      0.05000000	      0.10000000	      0.05000000	      0.10000000	      0.05000000	      0.10000000	      0.05000000	      0.10000000	      0.05000000	      0.10000000	      0.05000000	      0.10000000	      0.05000000	      0.10000000	      0.05000000	      0.10000000	      0.05000000	      0.10000000	      0.05000000	      0.10000000	      0.05000000	      0.10000000	      0.05000000	      0.10000000	      0.05000000	      0.10000000	      0.05000000	      0.10000000	      0.05000000	      0.10000000	      0.05000000	      0.10000000	      0.05000000	      0.10000000	      0.05000000	      0.10000000	      0.05000000	      0.10000000	      0.05000000	      0.10000000	      0.05000000	      0.10000000	      0.05000000	      0.10000000	      0.05000000	      0.10000000	      0.05000000	      0.10000000	      0.05000000	      0.10000000	      0.05000000	      0.10000000	      0.05000000	      0.10000000	      0.05000000	      0.10000000	      0.05000000	      0.10000000	      0.05000000	      0.10000000	      0.05000000	      0.10000000	      0.05000000	      0.10000000	      0.05000000	      0.10000000	      0.05000000	      0.10000000	      0.05000000	      0.10000000	      0.05000000	      0.10000000	      0.05000000	      0.10000000	      0.05000000	      0.10000000	      0.05000000	      0.10000000	      0.05000000	      0.10000000	      0.05000000	      0.10000000	      0.05000000	      0.10000000	      0.05000000	      0.10000000	      0.05000000	      0.10000000	      0.05000000	      0.10000000	      0.05000000	      0.10000000	      0.05000000	      0.10000000	      0.05000000	      0.10000000	      0.05000000	      0.10000000	      0.05000000	      0.10000000	      0.05000000	      0.10000000	      0.05000000	      0.10000000	      0.05000000	      0.10000000	      0.05000000	      0.10000000	      0.05000000	      0.10000000	      0.05000000	      0.10000000	      0.05000000	      0.10000000	      0.05000000	      0.10000000	      0.05000000	      0.10000000	      0.05000000	      0.10000000	      0.05000000	      0.10000000	      0.05000000	      0.10000000	      0.05000000	      0.10000000
